<svg width="254" height="41" viewBox="0 0 254 41" fill="none" xmlns="http://www.w3.org/2000/svg">
<path d="M25.1064 22.0537C24.874 25.2666 23.6846 27.7959 21.5381 29.6416C19.4053 31.4873 16.5889 32.4102 13.0889 32.4102C9.26074 32.4102 6.24609 31.125 4.04492 28.5547C1.85742 25.9707 0.763672 22.4297 0.763672 17.9316V16.1064C0.763672 13.2354 1.26953 10.7061 2.28125 8.51855C3.29297 6.33105 4.73535 4.65625 6.6084 3.49414C8.49512 2.31836 10.6826 1.73047 13.1709 1.73047C16.6162 1.73047 19.3916 2.65332 21.4971 4.49902C23.6025 6.34473 24.8193 8.93555 25.1475 12.2715H18.9951C18.8447 10.3438 18.3047 8.94922 17.375 8.08789C16.459 7.21289 15.0576 6.77539 13.1709 6.77539C11.1201 6.77539 9.58203 7.51367 8.55664 8.99023C7.54492 10.4531 7.02539 12.7295 6.99805 15.8193V18.0752C6.99805 21.3018 7.4834 23.6602 8.4541 25.1504C9.43848 26.6406 10.9834 27.3857 13.0889 27.3857C14.9893 27.3857 16.4043 26.9551 17.334 26.0938C18.2773 25.2188 18.8174 23.8721 18.9541 22.0537H25.1064ZM27.834 20.7002C27.834 18.499 28.2578 16.5371 29.1055 14.8145C29.9531 13.0918 31.1699 11.7588 32.7559 10.8154C34.3555 9.87207 36.208 9.40039 38.3135 9.40039C41.3076 9.40039 43.748 10.3164 45.6348 12.1484C47.5352 13.9805 48.5947 16.4688 48.8135 19.6133L48.8545 21.1309C48.8545 24.5352 47.9043 27.2695 46.0039 29.334C44.1035 31.3848 41.5537 32.4102 38.3545 32.4102C35.1553 32.4102 32.5986 31.3848 30.6846 29.334C28.7842 27.2832 27.834 24.4941 27.834 20.9668V20.7002ZM33.7607 21.1309C33.7607 23.2363 34.1572 24.8496 34.9502 25.9707C35.7432 27.0781 36.8779 27.6318 38.3545 27.6318C39.79 27.6318 40.9111 27.085 41.7178 25.9912C42.5244 24.8838 42.9277 23.1201 42.9277 20.7002C42.9277 18.6357 42.5244 17.0361 41.7178 15.9014C40.9111 14.7666 39.7764 14.1992 38.3135 14.1992C36.8643 14.1992 35.7432 14.7666 34.9502 15.9014C34.1572 17.0225 33.7607 18.7656 33.7607 21.1309ZM58.0625 9.81055L58.2471 12.292C59.8193 10.3643 61.9453 9.40039 64.625 9.40039C67.4824 9.40039 69.4443 10.5283 70.5107 12.7842C72.0693 10.5283 74.291 9.40039 77.1758 9.40039C79.582 9.40039 81.373 10.1045 82.5488 11.5127C83.7246 12.9072 84.3125 15.0127 84.3125 17.8291V32H78.3652V17.8496C78.3652 16.5918 78.1191 15.6758 77.627 15.1016C77.1348 14.5137 76.2666 14.2197 75.0225 14.2197C73.2451 14.2197 72.0146 15.0674 71.3311 16.7627L71.3516 32H65.4248V17.8701C65.4248 16.585 65.1719 15.6553 64.666 15.0811C64.1602 14.5068 63.2988 14.2197 62.082 14.2197C60.4004 14.2197 59.1836 14.917 58.4316 16.3115V32H52.5049V9.81055H58.0625ZM108.86 21.1104C108.86 24.5283 108.081 27.2695 106.522 29.334C104.978 31.3848 102.886 32.4102 100.247 32.4102C98.0049 32.4102 96.1934 31.6309 94.8125 30.0723V40.5312H88.8857V9.81055H94.3818L94.5869 11.9844C96.0225 10.2617 97.8955 9.40039 100.206 9.40039C102.94 9.40039 105.066 10.4121 106.584 12.4355C108.102 14.459 108.86 17.248 108.86 20.8027V21.1104ZM102.934 20.6797C102.934 18.6152 102.564 17.0225 101.826 15.9014C101.102 14.7803 100.042 14.2197 98.6475 14.2197C96.7881 14.2197 95.5098 14.9307 94.8125 16.3525V25.4375C95.5371 26.9004 96.8291 27.6318 98.6885 27.6318C101.519 27.6318 102.934 25.3145 102.934 20.6797ZM125.841 29.7441C124.378 31.5215 122.354 32.4102 119.771 32.4102C117.392 32.4102 115.573 31.7266 114.315 30.3594C113.071 28.9922 112.436 26.9893 112.408 24.3506V9.81055H118.335V24.1455C118.335 26.4561 119.388 27.6113 121.493 27.6113C123.503 27.6113 124.884 26.9141 125.636 25.5195V9.81055H131.583V32H126.005L125.841 29.7441ZM143.149 4.35547V9.81055H146.943V14.1582H143.149V25.2324C143.149 26.0527 143.307 26.6406 143.621 26.9961C143.936 27.3516 144.537 27.5293 145.426 27.5293C146.082 27.5293 146.663 27.4814 147.169 27.3857V31.877C146.007 32.2324 144.811 32.4102 143.58 32.4102C139.424 32.4102 137.305 30.3115 137.223 26.1143V14.1582H133.982V9.81055H137.223V4.35547H143.149ZM163.104 32C162.83 31.4668 162.632 30.8037 162.509 30.0107C161.073 31.6104 159.207 32.4102 156.91 32.4102C154.736 32.4102 152.932 31.7812 151.496 30.5234C150.074 29.2656 149.363 27.6797 149.363 25.7656C149.363 23.4141 150.231 21.6094 151.968 20.3516C153.718 19.0938 156.24 18.458 159.535 18.4443H162.263V17.1729C162.263 16.1475 161.996 15.3271 161.463 14.7119C160.943 14.0967 160.116 13.7891 158.981 13.7891C157.983 13.7891 157.197 14.0283 156.623 14.5068C156.062 14.9854 155.782 15.6416 155.782 16.4756H149.855C149.855 15.1904 150.252 14.001 151.045 12.9072C151.838 11.8135 152.959 10.959 154.408 10.3438C155.857 9.71484 157.484 9.40039 159.289 9.40039C162.023 9.40039 164.19 10.0908 165.79 11.4717C167.403 12.8389 168.21 14.7666 168.21 17.2549V26.873C168.224 28.9785 168.518 30.5713 169.092 31.6514V32H163.104ZM158.202 27.8779C159.077 27.8779 159.884 27.6865 160.622 27.3037C161.36 26.9072 161.907 26.3809 162.263 25.7246V21.9102H160.048C157.081 21.9102 155.502 22.9355 155.311 24.9863L155.29 25.335C155.29 26.0732 155.55 26.6816 156.069 27.1602C156.589 27.6387 157.3 27.8779 158.202 27.8779ZM171.84 20.7412C171.84 17.2822 172.612 14.5273 174.157 12.4766C175.716 10.4258 177.842 9.40039 180.535 9.40039C182.695 9.40039 184.479 10.207 185.888 11.8203V0.5H191.835V32H186.482L186.195 29.6416C184.719 31.4873 182.818 32.4102 180.494 32.4102C177.883 32.4102 175.784 31.3848 174.198 29.334C172.626 27.2695 171.84 24.4053 171.84 20.7412ZM177.767 21.1719C177.767 23.25 178.129 24.8428 178.854 25.9502C179.578 27.0576 180.631 27.6113 182.012 27.6113C183.844 27.6113 185.136 26.8389 185.888 25.2939V16.5371C185.149 14.9922 183.871 14.2197 182.053 14.2197C179.195 14.2197 177.767 16.5371 177.767 21.1719ZM195.506 20.7002C195.506 18.499 195.93 16.5371 196.777 14.8145C197.625 13.0918 198.842 11.7588 200.428 10.8154C202.027 9.87207 203.88 9.40039 205.985 9.40039C208.979 9.40039 211.42 10.3164 213.307 12.1484C215.207 13.9805 216.267 16.4688 216.485 19.6133L216.526 21.1309C216.526 24.5352 215.576 27.2695 213.676 29.334C211.775 31.3848 209.226 32.4102 206.026 32.4102C202.827 32.4102 200.271 31.3848 198.356 29.334C196.456 27.2832 195.506 24.4941 195.506 20.9668V20.7002ZM201.433 21.1309C201.433 23.2363 201.829 24.8496 202.622 25.9707C203.415 27.0781 204.55 27.6318 206.026 27.6318C207.462 27.6318 208.583 27.085 209.39 25.9912C210.196 24.8838 210.6 23.1201 210.6 20.7002C210.6 18.6357 210.196 17.0361 209.39 15.9014C208.583 14.7666 207.448 14.1992 205.985 14.1992C204.536 14.1992 203.415 14.7666 202.622 15.9014C201.829 17.0225 201.433 18.7656 201.433 21.1309ZM232.646 15.3682C231.839 15.2588 231.128 15.2041 230.513 15.2041C228.271 15.2041 226.801 15.9629 226.104 17.4805V32H220.177V9.81055H225.775L225.939 12.4561C227.129 10.4189 228.776 9.40039 230.882 9.40039C231.538 9.40039 232.153 9.48926 232.728 9.66699L232.646 15.3682ZM247.76 32C247.486 31.4668 247.288 30.8037 247.165 30.0107C245.729 31.6104 243.863 32.4102 241.566 32.4102C239.393 32.4102 237.588 31.7812 236.152 30.5234C234.73 29.2656 234.02 27.6797 234.02 25.7656C234.02 23.4141 234.888 21.6094 236.624 20.3516C238.374 19.0938 240.896 18.458 244.191 18.4443H246.919V17.1729C246.919 16.1475 246.652 15.3271 246.119 14.7119C245.6 14.0967 244.772 13.7891 243.638 13.7891C242.64 13.7891 241.854 14.0283 241.279 14.5068C240.719 14.9854 240.438 15.6416 240.438 16.4756H234.512C234.512 15.1904 234.908 14.001 235.701 12.9072C236.494 11.8135 237.615 10.959 239.064 10.3438C240.514 9.71484 242.141 9.40039 243.945 9.40039C246.68 9.40039 248.847 10.0908 250.446 11.4717C252.06 12.8389 252.866 14.7666 252.866 17.2549V26.873C252.88 28.9785 253.174 30.5713 253.748 31.6514V32H247.76ZM242.858 27.8779C243.733 27.8779 244.54 27.6865 245.278 27.3037C246.017 26.9072 246.563 26.3809 246.919 25.7246V21.9102H244.704C241.737 21.9102 240.158 22.9355 239.967 24.9863L239.946 25.335C239.946 26.0732 240.206 26.6816 240.726 27.1602C241.245 27.6387 241.956 27.8779 242.858 27.8779Z" fill="black"/>
</svg>
