<?xml version="1.0" ?><svg height="32" id="svg8" version="1.1" viewBox="0 0 8.4666665 8.4666669" width="32" xmlns="http://www.w3.org/2000/svg" xmlns:cc="http://creativecommons.org/ns#" xmlns:dc="http://purl.org/dc/elements/1.1/" xmlns:inkscape="http://www.inkscape.org/namespaces/inkscape" xmlns:rdf="http://www.w3.org/1999/02/22-rdf-syntax-ns#" xmlns:sodipodi="http://sodipodi.sourceforge.net/DTD/sodipodi-0.dtd" xmlns:svg="http://www.w3.org/2000/svg"><defs id="defs2"/><g id="layer1" transform="translate(0,-288.53332)"><circle cx="60.613323" cy="311.48529" id="circle4695" r="0" style="fill:none;fill-rule:evenodd;stroke:#000000;stroke-width:0.5;stroke-miterlimit:4;stroke-dasharray:none;stroke-opacity:1"/><circle cx="49.982716" cy="320.27481" id="circle4771" r="0" style="fill:none;fill-rule:evenodd;stroke:#000000;stroke-width:1;stroke-miterlimit:4;stroke-dasharray:none;stroke-opacity:1"/><circle cx="60.632153" cy="320.27481" id="circle4783" r="0" style="fill:none;fill-rule:evenodd;stroke:#000000;stroke-width:1;stroke-miterlimit:4;stroke-dasharray:none;stroke-opacity:1"/><circle cx="71.74472" cy="320.27481" id="circle4791" r="0" style="fill:none;fill-rule:evenodd;stroke:#000000;stroke-width:1;stroke-miterlimit:4;stroke-dasharray:none;stroke-opacity:1"/><circle cx="61.940491" cy="324.0498" id="circle4807" r="0" style="fill:none;fill-rule:evenodd;stroke:#000000;stroke-width:0.5;stroke-miterlimit:4;stroke-dasharray:none;stroke-opacity:1"/><path d="m 2.4851544,289.68618 c -0.39605,-0.0168 -0.802092,0.11182 -1.14774,0.39688 -0.79005402,0.65157 -0.95754402,1.86516 -0.37517202,2.72076 l 1.77146902,2.60243 c 0.435782,0.64023 1.164431,0.89306 1.834512,0.70693 0.0021,-5.3e-4 0.003,-5.3e-4 0.005,-10e-4 0.412583,-0.0761 0.799354,-0.31186 1.07642,-0.70177 l 1.785414,-2.51251 c 0.598976,-0.84291 0.45306,-2.06721 -0.327113,-2.74503 l -0.004,-0.004 c -0.780158,-0.67782 -1.890268,-0.54479 -2.489248,0.29817 l -0.4098,0.57671 -0.389641,-0.57259 c -0.327579,-0.48133 -0.820429,-0.74374 -1.32963,-0.76537 z" id="path4671" style="opacity:1;fill:none;fill-opacity:1;fill-rule:nonzero;stroke:#000000;stroke-width:1;stroke-linecap:square;stroke-linejoin:miter;stroke-miterlimit:4;stroke-dasharray:none;stroke-dashoffset:6.80813837;stroke-opacity:1;paint-order:stroke fill markers"/><path d="m 1.4139634,293.42184 h 1.581141 v 0 l 1.708186,-0.98608 0.94166,0.98608 h 1.616551" id="path4679" style="opacity:1;fill:none;fill-opacity:1;fill-rule:nonzero;stroke:#000000;stroke-width:0.5;stroke-linecap:square;stroke-linejoin:miter;stroke-miterlimit:4;stroke-dasharray:none;stroke-dashoffset:6.80813837;stroke-opacity:1;paint-order:stroke fill markers"/></g></svg>