<svg width="80" height="80" viewBox="0 0 80 80" fill="none" xmlns="http://www.w3.org/2000/svg">
<path d="M62.5 77.5H17.5C9.25 77.5 2.5 70.75 2.5 62.5V17.5C2.5 9.25 9.25 2.5 17.5 2.5H62.5C70.75 2.5 77.5 9.25 77.5 17.5V62.5C77.5 70.75 70.75 77.5 62.5 77.5Z" fill="url(#paint0_radial)"/>
<path d="M50 66.25H30C21 66.25 13.75 59 13.75 50V30C13.75 21 21 13.75 30 13.75H50C59 13.75 66.25 21 66.25 30V50C66.25 59 59 66.25 50 66.25ZM30 16.25C22.375 16.25 16.25 22.375 16.25 30V50C16.25 57.625 22.375 63.75 30 63.75H50C57.625 63.75 63.75 57.625 63.75 50V30C63.75 22.375 57.625 16.25 50 16.25H30Z" fill="white"/>
<path d="M40 53.75C32.375 53.75 26.25 47.625 26.25 40C26.25 32.375 32.375 26.25 40 26.25C47.625 26.25 53.75 32.375 53.75 40C53.75 47.625 47.625 53.75 40 53.75ZM40 28.75C33.75 28.75 28.75 33.75 28.75 40C28.75 46.25 33.75 51.25 40 51.25C46.25 51.25 51.25 46.25 51.25 40C51.25 33.75 46.25 28.75 40 28.75Z" fill="white"/>
<path d="M55 28.75C52.875 28.75 51.25 27.125 51.25 25C51.25 22.875 52.875 21.25 55 21.25C57.125 21.25 58.75 22.875 58.75 25C58.75 27.125 57.125 28.75 55 28.75ZM55 23.75C54.25 23.75 53.75 24.25 53.75 25C53.75 25.75 54.25 26.25 55 26.25C55.75 26.25 56.25 25.75 56.25 25C56.25 24.25 55.75 23.75 55 23.75Z" fill="white"/>
<defs>
<radialGradient id="paint0_radial" cx="0" cy="0" r="1" gradientUnits="userSpaceOnUse" gradientTransform="translate(8.12332 78.1235) rotate(-24.2685) scale(116.886 94.6778)">
<stop stop-color="#F9ED32"/>
<stop offset="0.2555" stop-color="#F59F4F"/>
<stop offset="0.6535" stop-color="#EE2A7B"/>
<stop offset="0.6848" stop-color="#E32A81"/>
<stop offset="0.7394" stop-color="#C72A91"/>
<stop offset="0.8107" stop-color="#982AAB"/>
<stop offset="0.896" stop-color="#582ACE"/>
<stop offset="0.9922" stop-color="#072AFB"/>
<stop offset="1" stop-color="#002AFF"/>
</radialGradient>
</defs>
</svg>
