<svg width="47" height="48" viewBox="0 0 47 48" fill="none" xmlns="http://www.w3.org/2000/svg">
<path d="M18.2691 0C8.1803 0 0 8.1803 0 18.2692C0 28.3581 8.1803 36.5384 18.2692 36.5384C22.1488 36.5384 25.7467 35.3284 28.7042 33.2672L28.7063 33.265L42.2556 46.8143C42.507 47.0658 42.9068 47.0722 43.1648 46.8143L46.8165 43.1626C47.0679 42.9112 47.055 42.4943 46.8143 42.2535L33.2671 28.7063C35.3283 25.7467 36.5384 22.1487 36.5384 18.2692C36.5384 8.1803 28.358 0 18.2691 0ZM18.2691 32.2398C10.5531 32.2398 4.29858 25.9853 4.29858 18.2692C4.29858 10.5531 10.5531 4.29865 18.2691 4.29865C25.9851 4.29865 32.2397 10.5531 32.2397 18.2692C32.2397 25.9853 25.9852 32.2398 18.2691 32.2398Z" fill="black"/>
</svg>
